<svg height="607" viewBox="0 0 845 607" width="845" xmlns="http://www.w3.org/2000/svg"><path d="m618.62 184.11c-2.99 6.37-6.49 12.49-10.46 18.29 39.91 12.64 62 55.25 49.37 95.16-12.65 39.9-55.26 62-95.15 49.35-37.41-11.85-59.58-50.27-51.13-88.57h-9.1c-3.98 0-7.96-.21-11.92-.63-9.09 52.45 26.05 102.35 78.51 111.44 52.45 9.1 102.34-26.04 111.44-78.5 7.96-45.89-18.04-90.92-61.77-106.96zm-117.93 74.54c8.95-46.91 54.24-77.67 101.15-68.71 4.13.79 8.2 1.88 12.18 3.26 3.4-6 6.27-12.3 8.57-18.82-55.56-20.2-116.99 8.46-137.19 64.03-2.17 5.96-3.8 12.1-4.89 18.36 6.67 1.19 13.41 1.82 20.18 1.88z" fill="#2b9fd9"/><g fill-rule="evenodd"><path d="m502.47-.11c72.35 0 131 58.65 131 131v.11c0 72.4-58.7 131.1-131.11 131.1-72.4 0-131.1-58.7-131.1-131.1 0-72.41 58.7-131.11 131.1-131.11zm.21 255.2c68.59 0 124.2-55.6 124.2-124.2 0-68.47-55.41-124.02-123.89-124.2-68.59-.17-124.34 55.3-124.51 123.89-.18 68.6 55.29 124.34 123.88 124.51zm201.77-141.76c23.73.06 42.92 19.34 42.87 43.07 0 23.79-19.28 43.07-43.08 43.07-23.79 0-43.07-19.28-43.07-43.07 0-23.78 19.28-43.07 43.07-43.07zm-32.93 43.28v.1c.06 18.14 14.8 32.79 32.93 32.73 18.13-.05 32.78-14.8 32.72-32.93-.06-18.14-14.8-32.78-32.93-32.73-18.09.07-32.72 14.74-32.72 32.83zm62.62 392.05c-15.63.11-30.67-5.97-41.82-16.94-22.92-22.23-23.48-58.83-1.25-81.75l1.25-1.26c23.61-22.56 60.77-22.56 84.37 0 22.93 22.15 23.56 58.68 1.42 81.61l-1.42 1.4c-11.3 11.19-26.65 17.3-42.55 16.94zm0-100.05c-11.26-.24-22.12 4.19-30 12.23-16.17 15.76-16.5 41.63-.75 57.8l.75.74c16.67 16.15 43.13 16.15 59.8 0 16.17-15.75 16.49-41.63.74-57.8l-.74-.74c-7.85-7.95-18.63-12.3-29.8-12.02z" fill="#146597"/><path d="m322.02 443.17v97.89c-.53 4.82-4.86 8.31-9.69 7.77-4.81-.53-8.29-4.86-7.77-9.69v-95.97c0-4.81 3.88-8.72 8.68-8.78 4.85 0 8.78 3.93 8.78 8.78zm129.03-66.82c4.91-.05 8.92 3.89 8.97 8.8v105.59c.27 15.79-6.1 30.97-17.57 41.82-23.59 22.56-60.76 22.56-84.36 0l-1.3-1.31c-22.18-22.88-21.59-59.42 1.3-81.6 11.12-11 26.18-17.1 41.82-16.93 15.84-.33 31.06 6.14 41.81 17.77v-65.34c.07-4.82 3.96-8.73 8.79-8.78zm-20.71 143.03c15.76-16.17 15.43-42.05-.74-57.8-7.8-8.05-18.59-12.48-29.79-12.25-11.27-.24-22.13 4.19-30.01 12.25l-.74.74c-15.76 16.16-15.43 42.04.74 57.8 7.92 7.98 18.76 12.35 30.01 12.12 11.18.23 21.94-4.15 29.79-12.12z" fill="#2b9fd9"/><path d="m576.8 449.13 1.31 1.31c22.17 22.89 21.59 59.42-1.31 81.59-11.28 11.09-26.53 17.19-42.34 16.94-15.87.35-31.11-6.17-41.82-17.88v67.27c-.53 4.81-4.86 8.29-9.69 7.77-4.82-.54-8.3-4.87-7.77-9.7v-105.79c-.39-15.81 6-31.03 17.56-41.82 23.61-22.55 60.77-22.55 84.37 0zm-12.02 70.98c8.12-7.7 12.61-18.48 12.33-29.68.28-11.07-4.22-21.74-12.33-29.28-16.6-16.31-43.21-16.31-59.8 0-8.07 7.58-12.55 18.22-12.34 29.28-.15 11.05 4.32 21.66 12.34 29.27 16.66 16.14 43.13 16.14 59.8 0z" fill="#146597"/><path d="m284.7 490.63v47.94c-.01 4.85-3.96 8.77-8.81 8.76-4.85-.02-8.77-3.96-8.76-8.82v-7.73c-10.7 11.7-25.95 18.22-41.81 17.88-15.63.09-30.65-6-41.82-16.94l-1.45-1.45c-22.09-22.89-21.44-59.36 1.45-81.46 23.54-22.59 60.72-22.59 84.26 0 11.57 10.79 17.96 26.01 17.57 41.82zm-28.43 28.75c15.76-16.17 15.43-42.05-.74-57.8-16.66-16.15-43.14-16.15-59.8 0l-.74.73c-15.76 16.17-15.43 42.05.74 57.81 16.6 16.31 43.2 16.31 59.8 0zm-106.22-45.05v65.24c0 4.84-3.94 8.78-8.79 8.78s-8.78-3.94-8.78-8.78v-65.24c.32-6.33-2.4-12.42-7.32-16.42-4.76-3.98-10.83-6.07-17.04-5.85-6.24-.21-12.34 1.87-17.15 5.85-4.84 4.04-7.52 10.12-7.21 16.42v67.15c-.52 4.81-4.87 8.3-9.69 7.77-4.82-.52-8.3-4.87-7.77-9.68v-65.24c.33-6.35-2.44-12.47-7.42-16.42-4.72-3.99-10.76-6.08-16.94-5.85-6.27-.22-12.4 1.86-17.25 5.85-4.82 4.05-7.45 10.13-7.11 16.42v65.24c0 4.84-3.93 8.78-8.77 8.78-4.86 0-8.79-3.94-8.79-8.78v-65.24c-.42-11.53 4.52-22.61 13.38-30.01 16.58-13.43 40.3-13.43 56.87 0 1.66 1.37 3.2 2.87 4.6 4.5 8.06-9.88 20.19-15.54 32.94-15.37 10.54-.17 20.78 3.55 28.74 10.45 9.09 7.42 14.11 18.72 13.5 30.43z" fill="#2b9fd9"/></g><path d="m669.33 435.33c-5.03-1.32-10.19-2.06-15.37-2.19-10.38-.1-20.43 3.62-28.23 10.45-8.86 7.4-13.8 18.47-13.38 30.01v65.23c-.02 4.85 3.91 8.79 8.75 8.81 4.85.01 8.8-3.9 8.81-8.75v-.06-65.23c-.35-6.32 2.29-12.44 7.11-16.52 4.88-3.91 11-5.96 17.26-5.76 2.27.05 4.55.34 6.78.85l4.81 1.15c4.95.48 9.35-3.13 9.83-8.08.43-4.28-2.25-8.26-6.37-9.49z" fill="#146597"/><path d="m323.69 411.39c0 6.12-4.96 11.08-11.08 11.08s-11.08-4.96-11.08-11.08 4.96-11.08 11.08-11.08c6.07-.05 11.03 4.81 11.08 10.87z" fill="#2b9fd9"/><path d="m822.27 523.36h6.58c1.67-.02 3.26.58 4.51 1.67.89.96 1.37 2.24 1.35 3.55.09 2.26-1.31 4.3-3.44 5.03l3.86 5.64h-4.07l-3.46-5.12h-2.71v5.12h-3.35v-15.16zm2.62 7.74h3.56c1.77 0 2.71-.95 2.71-2.31 0-1.56-1.15-2.4-2.82-2.4h-3.45z" fill="#146597" fill-rule="evenodd"/><path d="m827.71 514.89c9.13 0 16.52 7.4 16.52 16.52 0 9.08-7.33 16.46-16.42 16.52-9.11.05-16.56-7.29-16.61-16.42-.07-9.12 7.29-16.56 16.41-16.62zm-14.01 16.52v.1c.07 7.74 6.39 13.97 14.11 13.9 7.74-.05 13.97-6.37 13.92-14.11-.07-7.74-6.39-13.96-14.12-13.9-7.7.05-13.91 6.31-13.91 14.01z" fill="#146597" fill-rule="evenodd"/></svg>